<svg width="826" height="529" viewBox="0 0 826 529" fill="none" xmlns="http://www.w3.org/2000/svg">
<path d="M105 147V356.22H189.16V349.21H112.01V154.01H490.72V282.58H497.73V147H105Z" fill="#E5E5E5"/>
<path d="M433.85 225.348H189.354V233.979H433.85V225.348Z" fill="#E5E5E5"/>
<path d="M433.85 247.788H189.354V256.419H433.85V247.788Z" fill="#E5E5E5"/>
<path d="M433.85 270.228H189.354V278.859H433.85V270.228Z" fill="#E5E5E5"/>
<path d="M174.513 235.622C177.624 235.622 180.146 233.1 180.146 229.989C180.146 226.878 177.624 224.356 174.513 224.356C171.403 224.356 168.881 226.878 168.881 229.989C168.881 233.1 171.403 235.622 174.513 235.622Z" fill="#E5E5E5"/>
<path d="M0 0V209.22H84.1601V202.21H7.00999V7.01001H385.72V135.58H392.73V0H0Z" fill="#F1F1F1"/>
<path d="M328.85 78.3478H84.3542V86.9786H328.85V78.3478Z" fill="#F1F1F1"/>
<path d="M328.85 100.788H84.3542V109.419H328.85V100.788Z" fill="#F1F1F1"/>
<path d="M328.85 123.228H84.3542V131.859H328.85V123.228Z" fill="#F1F1F1"/>
<path d="M69.5134 88.6216C72.6243 88.6216 75.1461 86.0998 75.1461 82.9889C75.1461 79.8781 72.6243 77.3563 69.5134 77.3563C66.4026 77.3563 63.8808 79.8781 63.8808 82.9889C63.8808 86.0998 66.4026 88.6216 69.5134 88.6216Z" fill="#F1F1F1"/>
<path d="M599 505.13H206.27V295.908H599V505.13ZM213.283 498.117H591.987V302.921H213.283V498.117Z" fill="#CBCBCB"/>
<path d="M534.696 374.577H290.2V383.207H534.696V374.577Z" fill="#9B9FA6"/>
<path d="M534.696 397.017H290.2V405.648H534.696V397.017Z" fill="#9B9FA6"/>
<path d="M534.696 419.457H290.2V428.088H534.696V419.457Z" fill="#9B9FA6"/>
<path d="M275.36 384.85C278.47 384.85 280.992 382.328 280.992 379.218C280.992 376.107 278.47 373.585 275.36 373.585C272.249 373.585 269.727 376.107 269.727 379.218C269.727 382.328 272.249 384.85 275.36 384.85Z" fill="#9B9FA6"/>
</svg>
